<?xml version="1.0" standalone="no"?>
<!DOCTYPE svg PUBLIC "-//W3C//DTD SVG 20010904//EN"
 "http://www.w3.org/TR/2001/REC-SVG-20010904/DTD/svg10.dtd">
<svg version="1.0" xmlns="http://www.w3.org/2000/svg"
 width="1080.000000pt" height="1080.000000pt" viewBox="0 0 1080.000000 1080.000000"
 preserveAspectRatio="xMidYMid meet">
<metadata>
Created by potrace 1.14, written by Peter Selinger 2001-2017
</metadata>
<g transform="translate(0.000000,1080.000000) scale(0.100000,-0.100000)"
fill="#000000" stroke="none">
<path d="M5098 10735 c-2 -2 -48 -6 -103 -10 -55 -3 -120 -8 -145 -10 -25 -3
-62 -6 -82 -7 -21 -1 -38 -5 -38 -8 0 -3 -10 -6 -22 -7 -53 -2 -108 -8 -108
-13 0 -3 -17 -6 -38 -8 -20 -1 -52 -3 -69 -4 -18 -1 -33 -5 -33 -9 0 -3 -10
-5 -22 -5 -13 1 -29 -2 -35 -7 -7 -5 -13 -6 -13 -3 0 4 -10 2 -21 -5 -17 -9
-20 -8 -14 2 6 8 4 10 -4 4 -19 -11 -124 -34 -133 -29 -5 3 -8 1 -8 -3 0 -5
-8 -9 -17 -10 -10 -1 -63 -14 -118 -29 -55 -15 -108 -27 -117 -28 -10 0 -18
-3 -18 -6 0 -4 -6 -7 -12 -8 -7 0 -24 -3 -38 -7 -14 -3 -32 -8 -40 -10 -8 -2
-15 -4 -15 -5 0 -1 -7 -3 -15 -5 -8 -2 -42 -14 -75 -25 -33 -12 -68 -23 -79
-25 -10 -2 -24 -9 -32 -15 -7 -7 -18 -9 -24 -5 -5 3 -10 1 -10 -4 0 -6 -3 -10
-7 -9 -9 3 -161 -51 -178 -62 -17 -11 -110 -44 -117 -42 -5 1 -8 -2 -8 -8 0
-5 -6 -10 -13 -10 -7 0 -29 -9 -50 -20 -20 -11 -44 -20 -52 -20 -8 0 -15 -5
-15 -10 0 -6 -3 -9 -7 -8 -11 2 -67 -25 -75 -37 -4 -5 -8 -6 -8 -2 0 5 -20 -3
-45 -17 -25 -15 -45 -25 -45 -22 0 3 -16 -6 -36 -19 -20 -14 -41 -25 -46 -25
-6 0 -22 -9 -38 -20 -15 -11 -30 -17 -34 -13 -3 3 -6 2 -6 -4 0 -6 -8 -14 -17
-17 -10 -4 -36 -18 -58 -31 -22 -14 -51 -30 -65 -37 -14 -7 -29 -16 -35 -21
-5 -4 -32 -22 -60 -39 -27 -17 -69 -44 -92 -59 -23 -16 -44 -29 -48 -29 -4 0
-33 -20 -65 -45 -32 -25 -63 -45 -69 -45 -6 0 -11 -4 -11 -8 0 -5 -24 -24 -53
-42 -28 -19 -56 -39 -62 -46 -5 -6 -28 -24 -50 -40 -22 -16 -42 -31 -45 -34
-3 -3 -27 -24 -55 -45 -27 -22 -60 -49 -72 -60 -12 -11 -43 -38 -69 -60 -26
-22 -64 -57 -85 -78 -22 -21 -39 -36 -39 -34 0 3 -62 -59 -139 -137 -156 -159
-220 -226 -216 -226 2 0 -14 -19 -35 -42 -36 -40 -122 -144 -180 -218 -14 -17
-33 -41 -43 -52 -9 -12 -17 -24 -17 -28 0 -3 -8 -15 -18 -26 -10 -10 -38 -48
-62 -84 -25 -36 -48 -67 -51 -70 -12 -11 -169 -261 -169 -270 0 -6 -3 -10 -7
-10 -5 0 -19 -23 -32 -50 -14 -28 -29 -50 -33 -50 -4 0 -8 -9 -8 -20 0 -11 -4
-20 -8 -20 -4 0 -15 -15 -23 -32 -9 -18 -46 -91 -82 -163 -101 -199 -199 -426
-243 -565 -8 -25 -19 -54 -24 -65 -9 -18 -79 -227 -84 -250 -14 -61 -19 -82
-24 -90 -4 -5 -7 -19 -8 -30 -2 -20 -51 -217 -61 -245 -3 -8 -7 -25 -9 -38 -1
-12 -7 -46 -13 -75 -16 -79 -21 -109 -26 -142 -2 -16 -9 -59 -15 -95 -5 -36
-12 -78 -14 -95 -2 -16 -5 -30 -6 -30 -1 0 -3 -20 -5 -45 -2 -25 -7 -65 -9
-90 -14 -120 -20 -289 -20 -540 1 -300 8 -456 29 -620 4 -30 9 -68 11 -85 3
-30 6 -50 25 -158 5 -31 7 -61 4 -66 -3 -6 -1 -12 4 -15 7 -5 17 -51 28 -131
1 -11 10 -49 19 -85 9 -36 17 -72 19 -80 2 -8 4 -15 5 -15 1 0 3 -9 5 -20 2
-11 15 -63 30 -115 14 -52 28 -104 30 -115 2 -11 15 -56 30 -100 15 -44 28
-84 30 -90 1 -5 8 -23 14 -40 7 -16 14 -34 15 -40 1 -5 4 -14 7 -20 4 -5 14
-35 24 -65 10 -30 23 -61 29 -69 6 -8 10 -17 10 -20 -2 -7 1 -15 28 -86 25
-65 40 -97 134 -290 42 -88 77 -163 76 -167 -1 -5 1 -8 6 -8 4 0 16 -20 27
-45 11 -25 24 -45 28 -45 5 0 5 -4 2 -10 -3 -5 -2 -10 3 -10 5 0 12 -8 15 -17
6 -19 38 -75 48 -83 3 -3 12 -20 20 -38 8 -17 17 -32 21 -32 5 0 8 -7 8 -15 0
-8 5 -15 10 -15 6 0 10 -6 10 -14 0 -8 4 -16 9 -18 5 -1 11 -10 13 -18 2 -8
11 -22 20 -31 10 -9 18 -20 18 -23 0 -7 96 -149 121 -180 26 -33 79 -107 79
-111 0 -3 10 -17 23 -31 52 -58 57 -64 50 -64 -5 0 -3 -4 3 -8 6 -4 37 -38 69
-77 71 -87 154 -181 225 -255 30 -32 71 -75 91 -96 50 -53 180 -176 264 -249
37 -33 76 -67 85 -75 8 -9 34 -29 55 -45 22 -17 51 -40 65 -53 14 -12 60 -48
103 -79 42 -32 77 -61 77 -66 0 -4 4 -5 10 -2 5 3 10 2 10 -2 0 -5 15 -17 33
-28 17 -10 34 -21 37 -25 11 -13 102 -70 112 -70 6 0 8 -3 5 -7 -6 -6 6 -14
75 -50 16 -8 28 -18 28 -23 0 -4 10 -10 23 -14 12 -3 32 -15 45 -26 12 -11 22
-18 22 -15 0 3 17 -6 37 -20 21 -14 43 -25 49 -25 7 0 14 -3 16 -7 4 -10 26
-22 209 -117 81 -41 149 -72 153 -69 3 3 6 2 6 -4 0 -9 49 -35 70 -39 3 0 25
-10 50 -21 89 -42 140 -63 153 -63 7 0 17 -4 22 -8 6 -5 51 -23 100 -41 50
-18 104 -38 120 -44 17 -7 33 -12 37 -12 3 0 10 -3 14 -7 4 -5 17 -8 29 -8 12
0 25 -3 29 -7 4 -5 11 -8 14 -9 4 0 14 -3 22 -6 70 -26 168 -53 163 -44 -4 7
-1 6 8 -1 8 -6 28 -14 44 -17 17 -2 31 -5 33 -6 1 -2 7 -4 12 -5 6 -1 12 -4
15 -5 7 -3 14 -5 60 -15 22 -5 43 -10 48 -11 4 -1 8 -3 10 -4 1 -1 11 -4 22
-5 11 -2 49 -10 85 -18 36 -9 85 -19 110 -22 24 -4 48 -9 51 -11 4 -2 27 -6
51 -9 23 -2 57 -7 73 -9 17 -3 46 -8 65 -10 19 -3 69 -11 110 -17 41 -6 98
-12 127 -13 28 -1 55 -5 59 -9 4 -4 13 -2 21 4 7 6 13 7 13 2 0 -5 19 -10 43
-10 121 -2 331 -14 338 -19 5 -3 9 1 9 8 0 8 3 9 8 3 8 -12 27 -13 37 -3 4 3
19 2 35 -2 16 -4 31 -6 33 -4 3 3 65 7 138 10 174 6 315 18 474 39 28 4 65 7
82 8 18 1 33 6 33 10 0 5 3 6 8 4 6 -4 74 6 192 28 19 3 46 8 60 10 14 1 25 4
25 5 0 1 7 3 15 5 8 2 29 6 45 10 17 3 39 8 50 9 11 2 20 4 20 5 0 2 11 4 25
7 14 2 32 7 40 11 8 3 22 7 30 8 17 4 30 7 120 29 36 9 82 23 103 31 20 8 41
14 45 13 4 -1 21 4 37 11 17 7 37 14 45 16 17 4 154 52 185 65 11 4 34 13 50
19 17 6 44 16 60 22 17 7 33 13 38 14 4 2 9 4 12 5 3 1 8 3 13 5 4 1 20 7 35
13 16 7 33 12 38 12 5 0 9 5 9 10 0 6 6 10 14 10 8 0 54 19 103 42 48 23 90
42 93 43 3 0 25 12 50 25 25 13 47 24 50 25 5 1 15 6 110 58 191 104 429 250
442 271 4 6 8 7 8 3 0 -4 6 -3 13 3 6 6 44 33 82 60 98 69 116 83 131 98 7 6
17 12 23 12 6 0 11 5 11 10 0 6 7 10 16 10 8 0 12 5 9 10 -3 5 -2 10 3 10 5 0
38 22 72 50 34 27 67 50 72 50 5 0 6 5 3 10 -3 6 -2 10 3 10 5 0 20 9 33 21
93 79 151 132 206 186 35 33 63 58 63 55 1 -4 7 4 15 18 8 14 14 22 15 18 0
-4 19 13 42 39 24 25 66 69 95 96 28 28 50 54 47 59 -3 4 2 8 10 8 9 0 16 4
16 9 0 4 12 21 28 37 27 29 68 77 127 148 17 20 40 49 53 64 37 44 42 51 42
56 0 3 10 16 23 29 65 72 385 550 392 587 0 3 8 16 16 30 18 27 83 144 111
200 10 19 18 40 18 47 0 7 5 13 10 13 6 0 10 4 10 9 0 5 22 55 49 112 67 143
198 476 193 492 -1 4 2 7 8 7 6 0 9 3 8 8 -1 4 12 54 31 111 18 56 34 108 36
115 1 6 6 19 10 30 4 10 8 31 9 47 1 16 4 29 7 29 5 0 20 56 34 120 0 3 13 57
27 120 48 208 55 250 45 250 -6 0 -6 5 1 13 10 12 16 45 37 197 3 25 8 56 10
70 3 25 11 102 20 210 3 30 7 116 11 190 3 74 6 156 7 183 1 26 -2 47 -8 47
-7 0 -7 3 0 8 11 8 16 62 6 62 -6 0 -6 46 -1 60 1 3 1 10 0 15 -1 6 -4 55 -6
110 -2 55 -6 129 -9 165 -3 36 -8 89 -10 118 -3 29 -7 63 -9 76 -7 38 -20 161
-18 169 1 4 -1 7 -5 7 -5 0 -8 15 -8 33 1 17 -3 50 -8 72 -5 22 -10 54 -13 70
-2 17 -6 41 -10 55 -3 14 -8 41 -11 60 -3 19 -9 40 -14 46 -5 6 -7 13 -4 15 2
3 -5 41 -16 84 -11 44 -23 91 -26 105 -15 70 -104 367 -130 430 -3 8 -7 20 -9
25 -10 32 -31 86 -37 91 -4 4 -7 16 -7 26 0 10 -4 26 -10 36 -5 9 -15 33 -23
52 -91 223 -165 382 -181 392 -6 4 -8 8 -4 8 3 0 -14 37 -38 81 -24 45 -46 90
-49 100 -4 11 -11 19 -16 19 -6 0 -7 5 -4 10 3 6 1 10 -4 10 -6 0 -11 5 -11
11 0 6 -18 41 -41 77 -22 37 -45 76 -52 87 -7 11 -29 45 -49 77 -21 31 -38 61
-38 67 0 5 -4 11 -8 13 -5 2 -28 32 -52 68 -24 36 -47 67 -52 68 -4 2 -8 8 -8
13 0 11 -60 92 -72 97 -5 2 -8 10 -8 17 0 8 -6 18 -13 22 -7 4 -20 19 -29 33
-9 14 -25 35 -37 47 -12 12 -21 27 -21 33 0 5 -4 10 -9 10 -5 0 -22 18 -38 39
-99 135 -473 519 -617 634 -16 12 -43 36 -61 52 -58 52 -321 255 -330 255 -5
0 -37 25 -61 48 -8 7 -14 10 -14 5 0 -4 -4 -3 -8 2 -7 11 -145 103 -209 140
-18 11 -33 23 -33 28 0 4 -4 6 -8 3 -5 -3 -19 4 -30 15 -12 11 -22 17 -22 14
0 -4 -13 3 -29 14 -16 12 -31 21 -34 21 -3 0 -39 20 -81 45 -42 24 -76 42 -76
38 0 -3 -8 1 -17 9 -10 8 -45 27 -78 43 -33 16 -63 33 -66 38 -3 5 -8 8 -10 6
-4 -2 -21 5 -131 55 -51 24 -105 47 -118 51 -3 1 -18 7 -33 13 -16 7 -33 12
-38 12 -5 0 -9 4 -9 8 0 4 -10 9 -22 9 -13 1 -24 7 -26 12 -2 5 -10 7 -18 4
-8 -3 -14 0 -14 7 0 6 -4 9 -8 6 -5 -3 -20 1 -35 9 -15 8 -27 12 -27 9 0 -2
-13 2 -29 10 -16 9 -31 12 -35 9 -3 -4 -6 0 -6 7 0 7 -3 10 -6 7 -4 -3 -15 -2
-26 4 -11 6 -29 12 -41 14 -12 3 -31 9 -42 14 -11 6 -69 24 -130 41 -60 16
-124 35 -142 40 -18 6 -42 13 -55 15 -19 4 -49 11 -90 21 -5 1 -9 2 -10 4 -3
2 -31 8 -68 15 -54 10 -60 11 -66 17 -3 4 -12 4 -20 1 -8 -3 -14 -1 -14 3 0 5
-12 9 -27 10 -16 0 -44 4 -63 8 -41 9 -72 14 -120 20 -19 2 -51 7 -70 10 -19
3 -51 8 -70 10 -19 3 -55 8 -79 12 -24 3 -65 8 -90 9 -25 2 -46 4 -46 5 0 9
-789 23 -797 15z m242 -902 c0 -3 -87 -178 -235 -473 -71 -140 -129 -257 -130
-260 0 -3 -4 -11 -8 -17 -20 -31 -107 -213 -107 -222 0 -6 7 -11 15 -11 8 0
15 -3 15 -7 0 -5 74 -7 165 -6 l164 2 -9 -24 c-16 -43 -107 -258 -135 -320
-23 -51 -40 -100 -37 -107 1 -5 -3 -8 -8 -8 -6 0 -10 -9 -10 -19 0 -11 -5 -21
-10 -23 -6 -2 -12 -13 -13 -26 0 -12 -4 -22 -8 -22 -7 0 -23 -50 -21 -62 1 -5
-3 -8 -9 -8 -5 0 -8 -4 -4 -9 3 -5 1 -12 -5 -16 -5 -3 -10 -15 -10 -26 0 -10
-5 -19 -10 -19 -6 0 -9 -3 -8 -7 1 -5 -3 -19 -9 -33 -6 -14 -18 -42 -26 -63
l-16 -38 -43 28 c-24 15 -59 38 -78 52 -49 34 -192 182 -210 217 -8 16 -18 31
-21 34 -17 14 -89 183 -103 243 -25 99 -30 149 -30 277 0 197 24 312 95 455
90 180 232 322 414 413 87 43 232 84 348 98 29 4 53 7 54 8 3 3 43 2 43 -1z
m607 -129 c185 -104 330 -271 412 -475 12 -31 24 -63 25 -70 1 -8 11 -50 21
-94 27 -112 27 -321 0 -432 -3 -13 -7 -31 -9 -40 -8 -34 -44 -128 -62 -163
-135 -269 -385 -452 -704 -517 -101 -21 -324 -24 -430 -7 -70 11 -244 58 -259
70 -4 4 23 46 49 77 10 12 27 31 37 43 71 83 116 137 223 264 67 80 126 147
131 148 5 2 9 8 9 13 0 6 16 28 36 49 20 22 43 49 51 60 8 12 26 33 40 48 14
15 42 47 62 72 20 25 39 47 42 50 3 3 24 28 46 57 22 29 43 49 47 46 3 -4 6 1
6 9 0 9 3 18 8 20 4 2 41 43 82 93 41 49 83 97 92 107 9 9 14 19 10 22 -3 3 0
6 6 6 16 0 15 47 0 52 -7 3 -97 4 -199 4 l-186 -1 19 38 c11 20 24 37 30 37 5
0 6 5 3 10 -3 6 -2 10 2 10 5 0 17 17 28 38 11 20 25 43 32 49 6 7 17 26 25
43 7 16 17 30 21 30 5 0 5 5 2 10 -3 6 -2 10 3 10 5 0 26 29 47 65 21 36 42
65 48 65 6 0 8 3 4 6 -3 3 9 28 28 54 19 26 31 51 28 54 -20 19 38 1 94 -30z
m419 -3738 l-1 -1161 -790 -1 c-434 -1 -796 -2 -802 -3 -10 -1 -13 -401 -15
-1948 l-3 -1948 -161 -1 -162 -1 0 3106 c0 1708 2 3109 4 3113 2 4 438 6 968
6 l964 0 -2 -1162z m-1 -3391 l0 -1670 -496 -1 -495 -1 2 841 c0 462 2 846 3
851 1 11 166 14 177 3 4 -4 12 -4 18 -1 16 11 76 11 82 1 3 -5 11 -5 17 -1 19
11 157 10 157 -2 0 -6 3 -7 8 0 8 12 101 13 119 2 6 -4 14 -3 17 2 7 10 25 9
43 -2 6 -4 14 -4 17 1 2 4 30 7 60 6 33 -1 59 3 63 10 10 16 10 106 0 106 -4
0 -5 6 -1 12 11 17 11 128 1 128 -5 0 -5 6 0 13 11 17 11 29 1 50 -5 9 -5 17
0 17 11 0 9 53 -3 62 -7 5 -7 8 0 8 14 0 13 145 0 145 -6 0 -16 4 -22 8 -8 5
-13 3 -13 -4 0 -9 -3 -10 -11 -2 -7 7 -23 8 -45 3 -20 -5 -37 -4 -40 2 -3 5
-11 4 -20 -3 -11 -9 -14 -9 -14 0 0 8 -5 9 -19 1 -12 -6 -22 -6 -25 -1 -3 5
-21 5 -41 1 -20 -5 -38 -4 -41 2 -3 5 -11 5 -19 -2 -10 -8 -15 -8 -20 0 -5 8
-10 8 -20 0 -8 -7 -16 -7 -19 -2 -3 6 -21 7 -41 2 -20 -5 -38 -4 -41 2 -3 5
-11 4 -20 -3 -11 -9 -14 -9 -14 0 0 8 -5 9 -19 1 -12 -6 -22 -6 -25 -1 -3 5
-21 5 -41 1 -20 -5 -38 -4 -41 2 -3 5 -11 5 -19 -2 -10 -8 -15 -8 -20 0 -5 8
-10 8 -20 0 -8 -7 -15 -7 -19 -1 -4 6 -18 6 -35 1 -58 -16 -56 -38 -57 542 0
293 0 535 2 538 1 3 224 5 496 5 l493 0 0 -1670z"/>
</g>
</svg>
